<!--?xml version="1.0" standalone="no"?-->
              <svg id="sw-js-blob-svg" viewBox="0 0 100 100" xmlns="http://www.w3.org/2000/svg" version="1.1">
                    <defs> 
                        <linearGradient id="sw-gradient" x1="0" x2="1" y1="1" y2="0">
                            <stop id="stop1" stop-color="rgba(74.345, 86.568, 80.864, 1)" offset="0%"></stop>
                            <stop id="stop2" stop-color="rgba(0, 255, 136, 1)" offset="100%"></stop>
                        </linearGradient>
                    </defs>
                <path fill="url(#sw-gradient)" d="M14.6,-24.7C17.5,-20.9,17.5,-14.4,21.4,-8.9C25.3,-3.3,33.2,1.3,32.7,4.7C32.2,8.1,23.3,10.3,18.1,14.8C12.8,19.3,11.3,26.2,8.2,26.5C5.1,26.8,0.5,20.4,-5,18.3C-10.5,16.1,-16.9,18.1,-24.1,16.9C-31.4,15.7,-39.6,11.3,-41.3,5.4C-43.1,-0.6,-38.5,-8,-30.9,-9.8C-23.4,-11.6,-12.9,-7.7,-7.3,-10.3C-1.6,-12.8,-0.8,-21.8,2.5,-25.8C5.9,-29.7,11.7,-28.5,14.6,-24.7Z" width="100%" height="100%" transform="translate(50 50)" stroke-width="0" style="transition: all 0.3s ease 0s;" stroke="url(#sw-gradient)"></path>
              </svg>